<svg width="266" height="64" viewBox="0 0 266 64" xmlns="http://www.w3.org/2000/svg"><g fill="none" fill-rule="evenodd"><path d="M87.6574081.00007367V48.1178929H76.3387349V2.40544893L87.6574081.00007367ZM55.4302703 36.7959794c3.128691 0 5.6600731-2.5320903 5.6600731-5.6609199 0-3.1295664-2.5313821-5.6609199-5.6600731-5.6609199-3.1279545 0-5.6593365 2.5313535-5.6593365 5.6609199 0 3.1288296 2.531382 5.6609199 5.6593365 5.6609199Zm0-23.1313851c9.6372227 0 17.4655788 7.8150752 17.4655788 17.4704652 0 9.6546532-7.8290926 17.4704652-17.4655788 17.4704652-9.6519528 0-17.4655787-7.815812-17.4655787-17.4704652 0-9.65539 7.8290926-17.4704652 17.4655787-17.4704652Zm0 39.0135659c3.125745 0 5.6600731 2.5343004 5.6600731 5.6609199S58.5560153 64 55.4302703 64c-3.1250084 0-5.6593365-2.5343004-5.6593365-5.6609199s2.5343281-5.6609199 5.6593365-5.6609199ZM30.2462226 22.6753584c2.7353951 2.7044816 4.4330488 6.446995 4.4168456 10.5821777 0 8.2084812-6.6492049 14.8602831-14.8553902 14.8602831H0V0h17.6069885c8.2061854 0 14.8553903 6.6518019 14.8553903 14.8595464 0 2.8621387-.801322 5.5511493-2.2161562 7.815812Zm-10.4230779 14.120621c1.9495398 0 3.5374536-1.5883581 3.5374536-3.5384433 0-1.9493485-1.5879138-3.5377066-3.5374536-3.5377066h-8.4882684v7.0761499h8.4882684Zm-8.4882684-25.4741396v7.0761499h6.2883154c1.9488033 0 3.5359806-1.5883581 3.5359806-3.5384433 0-1.9493485-1.5871773-3.5377066-3.5359806-3.5377066h-6.2883154Zm97.7022887 14.3093675h-5.64387v8.8847858c0 2.6890106.865398 4.6700379 3.128691 4.6700379 1.461971 0 2.530646-.3300485 2.530646-.3300485v8.3344595s-2.3421 1.41523-5.517927 1.41523h-.14141c-.140673 0-.266616-.0162077-.408763-.0162077h-.109739c-.062604 0-.142147-.015471-.20475-.015471-6.3199853-.3307852-10.6108878-4.3090475-10.6108878-11.2120693V8.06644251l11.3186728-2.40537526v8.64830015h5.659337v11.3218399Z" fill="#34D186"/><path d="M174.151747 36.7969447c3.134039 0 5.670346-2.5321415 5.670346-5.6610344 0-3.1296296-2.536307-5.6610344-5.670346-5.6610344-3.134777 0-5.671083 2.5314048-5.671083 5.6610344 0 3.1288929 2.536306 5.6610344 5.671083 5.6610344Zm0-23.131853c9.655232 0 17.499554 7.8152334 17.499554 17.4708186 0 9.6548485-7.844322 17.4708186-17.499554 17.4708186-9.670728 0-17.499553-7.8159701-17.499553-17.4708186 0-9.6555852 7.844322-17.4708186 17.499553-17.4708186Zm37.033244 23.131853c3.134039 0 5.670345-2.5321415 5.670345-5.6610344 0-3.1296296-2.536306-5.6610344-5.670345-5.6610344-3.134777 0-5.671083 2.5314048-5.671083 5.6610344 0 3.1288929 2.536306 5.6610344 5.671083 5.6610344Zm0-23.131853c9.655231 0 17.499554 7.8152334 17.499554 17.4708186 0 9.6548485-7.844323 17.4708186-17.499554 17.4708186-9.670728 0-17.499553-7.8159701-17.499553-17.4708186 0-9.6555852 7.844322-17.4708186 17.499553-17.4708186Zm-73.107458 16.063443v18.3902578h-11.340691V0h30.272589v11.3375402h-18.931898v7.0527176h15.498993v11.3382769h-15.498993Zm116.141719 15.4841515c-1.924406 1.78619-4.392611 2.9061063-7.445096 2.9061063-8.865633 0-16.051711-7.7120911-16.051711-17.2269609 0-9.5141331 7.186078-17.2269609 16.051711-17.2269609 3.052485 0 5.52069 1.0995669 7.445096 2.8660773V0h11.34069v48.1187925h-11.34069v-2.9061063Zm-6.152959-8.6075123c3.160605 0 5.722739-2.5579271 5.722739-5.7133423 0-3.1554152-2.562134-5.7126055-5.722739-5.7126055s-5.72274 2.5571903-5.72274 5.7126055c0 3.1554152 2.562135 5.7133423 5.72274 5.7133423Z" fill="#2F313F"/></g></svg>
