<svg width="40" height="40" viewBox="0 0 40 40" xmlns="http://www.w3.org/2000/svg"><g fill="none" fill-rule="evenodd"><circle stroke="#2F313F" cx="20" cy="20" r="19.5"/><path d="M16.2896 27.9178419c7.5472 0 11.6752-6.2528 11.6752-11.6752 0-.1776 0-.3544-.012-.5304.8030651-.5808713 1.4962844-1.3000965 2.0472-2.124a8.1904018 8.1904018 0 0 1-2.3568.6456c.8565952-.5128144 1.4976988-1.3193824 1.804-2.2696a8.2232015 8.2232015 0 0 1-2.6056.996c-1.2719338-1.3524846-3.2930245-1.6835099-4.9299606-.8074561-1.636936.8760539-2.4826194 2.7413167-2.0628394 4.5498561-3.2992834-.1654004-6.3732194-1.7237414-8.4568-4.2872-1.0891018 1.8749158-.5328097 4.2734876 1.2704 5.4776-.653007-.019354-1.2917765-.1955095-1.8624-.5136v.052c.0005345 1.9532744 1.3774012 3.6356281 3.292 4.0224-.6041043.164752-1.2379355.1888354-1.8528.0704.5375583 1.6715383 2.0780596 2.8166271 3.8336 2.8496-1.453012 1.1419455-3.2479524 1.7618622-5.096 1.76a8.3528075 8.3528075 0 0 1-.9768-.0592c1.8765088 1.2042212 4.0599307 1.8429735 6.2896 1.84" fill="#2F313F" fill-rule="nonzero"/></g></svg>
